<?xml version="1.0" standalone="no"?>
<!DOCTYPE svg PUBLIC "-//W3C//DTD SVG 20010904//EN"
 "http://www.w3.org/TR/2001/REC-SVG-20010904/DTD/svg10.dtd">
<svg version="1.0" xmlns="http://www.w3.org/2000/svg"
 width="700.000000pt" height="700.000000pt" viewBox="0 0 700.000000 700.000000"
 preserveAspectRatio="xMidYMid meet">
<metadata>
Created by potrace 1.14, written by Peter Selinger 2001-2017
</metadata>
<g transform="translate(0.000000,700.000000) scale(0.100000,-0.100000)"
fill="#000000" stroke="none">
<path d="M2945 6992 c-22 -1 -62 -7 -90 -13 -27 -6 -61 -13 -75 -15 -48 -9
-296 -73 -355 -92 l-60 -19 80 -2 c75 -1 112 -4 194 -16 23 -4 68 5 131 24
128 40 307 85 403 102 79 13 98 23 50 26 -94 5 -244 8 -278 5z"/>
<path d="M3647 6983 c-1 -1 -38 -3 -82 -4 -44 -2 -86 -5 -94 -7 -7 -3 29 -16
80 -29 52 -14 153 -45 224 -71 138 -49 174 -53 315 -38 36 4 110 7 164 7 54 0
97 1 95 4 -15 15 -312 104 -414 125 -48 9 -281 20 -288 13z"/>
<path d="M3220 6928 c-196 -45 -422 -111 -412 -119 4 -3 50 -21 102 -38 52
-18 157 -57 232 -87 l137 -56 158 55 c140 49 396 120 431 120 26 0 10 14 -35
29 -27 9 -79 27 -118 41 -38 14 -129 41 -200 59 l-130 34 -165 -38z"/>
<path d="M2200 6790 c-206 -87 -488 -237 -472 -251 4 -4 25 -9 47 -12 22 -3
70 -15 107 -27 l66 -20 124 65 c155 83 280 144 433 211 66 30 113 54 105 55
-8 0 -24 3 -35 5 -11 3 -78 7 -150 9 l-130 5 -95 -40z"/>
<path d="M4468 6785 c-2 -1 -59 -5 -128 -9 -127 -7 -233 -16 -238 -21 -4 -3
59 -40 193 -110 61 -32 138 -76 173 -97 34 -21 64 -38 67 -38 2 0 40 -23 83
-50 l79 -50 124 29 c110 27 172 38 218 40 10 1 11 4 5 10 -20 20 -245 151
-361 211 -71 36 -120 67 -116 73 3 6 1 7 -5 3 -6 -3 -29 -2 -51 3 -22 5 -41 8
-43 6z"/>
<path d="M4580 6771 c0 -3 41 -26 91 -50 91 -44 256 -137 359 -202 30 -19 69
-36 85 -37 45 -4 107 -11 133 -16 34 -7 27 0 -35 36 -32 18 -71 41 -88 50 -99
57 -330 169 -385 187 -75 24 -160 41 -160 32z"/>
<path d="M3870 6696 c-80 -24 -190 -60 -245 -80 -55 -21 -120 -45 -144 -53
l-44 -16 54 -33 c108 -65 332 -211 460 -298 l131 -90 171 86 c95 47 223 107
285 133 97 42 134 65 103 65 -4 0 -39 20 -75 45 -37 25 -69 45 -72 45 -2 0
-27 15 -56 34 -50 31 -156 89 -313 170 -38 20 -78 36 -90 36 -11 -1 -85 -20
-165 -44z"/>
<path d="M5105 6361 c-38 -10 -108 -30 -153 -45 -68 -23 -81 -31 -70 -41 7 -7
60 -50 118 -96 151 -119 232 -191 422 -371 39 -38 76 -65 82 -61 6 4 43 30 81
58 39 28 90 64 114 80 l44 29 -64 60 c-267 246 -457 405 -484 405 -11 -1 -51
-9 -90 -18z"/>
<path d="M5240 6375 c0 -2 57 -51 128 -108 70 -58 143 -120 162 -137 184 -171
222 -205 228 -205 14 0 91 40 92 47 0 8 -101 106 -194 189 -74 67 -246 199
-259 200 -7 0 -20 2 -29 4 -33 6 -128 14 -128 10z"/>
<path d="M4720 6212 c-123 -56 -154 -71 -319 -165 l-124 -70 29 -25 c51 -43
147 -127 158 -137 6 -6 40 -37 76 -69 36 -33 149 -140 252 -238 103 -99 190
-180 193 -180 10 -1 475 372 475 381 0 6 -247 246 -315 306 -16 15 -68 56
-115 93 -47 37 -109 86 -138 109 -29 24 -56 43 -60 42 -4 0 -54 -21 -112 -47z"/>
<path d="M2485 6010 c-22 -16 -44 -33 -50 -37 -5 -5 -44 -33 -85 -62 -145
-105 -472 -364 -634 -502 -7 -6 108 -145 183 -220 9 -9 32 -34 51 -55 19 -21
59 -66 90 -99 30 -33 93 -102 139 -153 l84 -92 56 47 c31 26 58 50 61 53 3 3
34 30 70 60 36 30 70 60 76 65 6 6 33 28 60 50 27 22 64 54 84 71 38 34 418
336 464 370 l29 21 -139 119 c-209 179 -478 394 -493 394 -3 0 -24 -14 -46
-30z"/>
<path d="M4000 5802 c-174 -116 -466 -321 -548 -383 l-22 -17 96 -94 c135
-131 451 -447 563 -563 109 -112 93 -111 202 -13 64 57 97 85 134 116 55 46
153 130 180 153 17 15 95 82 175 149 80 68 147 124 149 126 3 3 -60 66 -284
283 -140 135 -420 381 -433 381 -4 -1 -99 -63 -212 -138z"/>
<path d="M5937 5814 l-37 -35 32 -42 c18 -23 35 -44 38 -47 59 -59 347 -456
337 -466 -2 -2 -17 15 -33 38 -86 127 -274 372 -351 458 -13 14 -23 28 -23 32
0 21 -33 1 -110 -68 -47 -41 -95 -86 -108 -98 l-23 -23 104 -124 c113 -136
211 -263 334 -436 l80 -112 67 138 c36 76 68 155 70 175 3 20 8 41 12 47 11
19 12 113 1 134 -32 62 -333 464 -347 464 -3 0 -22 -15 -43 -35z"/>
<path d="M1062 5673 c-161 -169 -152 -159 -317 -355 l-124 -148 45 -102 c25
-57 73 -156 107 -221 48 -94 63 -116 71 -104 11 14 103 121 141 163 11 12 43
48 72 80 97 112 115 130 289 305 l175 177 -33 38 c-18 21 -44 49 -57 63 -13
14 -66 77 -118 139 -52 61 -98 112 -102 112 -4 0 -71 -66 -149 -147z"/>
<path d="M5595 5498 c-22 -18 -42 -35 -45 -38 -3 -3 -36 -32 -75 -65 -38 -33
-106 -94 -150 -136 -44 -42 -95 -89 -112 -104 -18 -15 -33 -31 -33 -35 0 -5
57 -78 128 -162 187 -225 240 -292 375 -471 53 -70 98 -129 101 -130 7 -3 213
274 298 400 l68 103 -32 47 c-68 98 -266 365 -282 378 -6 6 -24 28 -41 50 -26
36 -64 82 -135 166 l-25 29 -40 -32z"/>
<path d="M1613 5308 c-11 -13 -80 -82 -154 -154 -178 -174 -251 -251 -408
-428 -121 -138 -130 -151 -118 -170 8 -12 51 -80 97 -153 104 -164 334 -489
343 -485 4 1 188 184 410 406 l404 403 -31 35 c-37 41 -203 222 -231 252 -11
12 -65 73 -120 136 -142 163 -157 180 -165 180 -3 0 -15 -10 -27 -22z"/>
<path d="M6423 5143 l0 -88 87 -175 c84 -166 102 -205 145 -310 34 -83 38 -72
20 70 -9 79 -21 118 -61 207 -31 69 -182 374 -188 381 -2 1 -3 -37 -3 -85z"/>
<path d="M503 5003 c-120 -183 -157 -243 -246 -395 l-86 -146 24 -108 c26
-114 53 -216 87 -327 l20 -68 102 163 c127 202 145 228 274 407 l105 143 -71
142 c-39 77 -82 172 -97 211 -14 38 -29 73 -34 78 -4 4 -39 -41 -78 -100z"/>
<path d="M5099 5053 c-9 -10 -47 -46 -85 -79 -38 -34 -81 -72 -95 -85 -14 -13
-68 -62 -119 -109 -52 -47 -117 -106 -145 -132 -28 -26 -60 -55 -71 -65 -88
-76 -174 -159 -174 -166 0 -9 69 -93 142 -172 15 -16 57 -66 94 -110 36 -44
78 -93 93 -110 14 -16 55 -66 91 -110 35 -44 67 -82 70 -85 3 -3 21 -25 40
-50 48 -63 52 -67 110 -138 l52 -64 40 44 c22 23 75 79 117 123 258 271 486
539 475 558 -50 83 -451 594 -578 735 -34 37 -36 38 -57 15z"/>
<path d="M6391 4960 c-12 -39 -39 -112 -61 -161 l-39 -90 21 -37 c59 -104 176
-339 230 -460 33 -75 63 -141 66 -146 8 -13 58 196 72 303 l13 90 -59 133
c-57 129 -184 384 -209 421 -11 16 -15 10 -34 -53z"/>
<path d="M6260 4663 c0 -19 -168 -292 -277 -452 -24 -34 -43 -67 -43 -74 0 -6
47 -90 104 -186 57 -97 143 -251 191 -343 48 -93 90 -168 93 -168 10 1 177
340 226 460 l43 105 -53 126 c-58 142 -136 300 -214 434 -54 95 -70 117 -70
98z"/>
<path d="M6736 4460 c13 -157 9 -210 -27 -395 -11 -55 -22 -111 -25 -125 -2
-14 -7 -31 -9 -39 -3 -7 10 -66 29 -130 43 -142 64 -225 70 -271 11 -90 19
-130 26 -130 7 0 27 96 36 174 3 22 7 52 11 66 3 14 6 102 8 195 3 164 1 177
-35 350 -21 99 -49 223 -63 275 l-26 95 5 -65z m50 -276 c39 -148 43 -164 33
-158 -5 3 -9 13 -9 22 0 9 -14 64 -30 122 -17 58 -30 109 -30 114 0 25 13 -10
36 -100z m53 -223 c5 -24 6 -39 1 -35 -8 10 -25 92 -16 84 2 -3 9 -25 15 -49z
m8 -83 c-3 -7 -5 -2 -5 12 0 14 2 19 5 13 2 -7 2 -19 0 -25z"/>
<path d="M829 4477 c-122 -155 -459 -661 -459 -688 0 -31 316 -639 349 -672 4
-4 63 65 131 154 107 140 287 363 331 409 8 8 36 42 64 75 27 33 53 62 57 63
5 2 8 8 8 12 0 11 -439 674 -448 677 -4 2 -18 -12 -33 -30z"/>
<path d="M2167 4297 c-70 -73 -238 -243 -373 -378 -134 -135 -244 -251 -244
-257 0 -9 27 -41 159 -187 20 -22 77 -85 126 -140 50 -55 92 -102 95 -105 7
-6 80 -86 210 -230 97 -106 129 -140 135 -140 2 0 84 70 182 156 98 87 207
182 242 213 35 31 69 61 75 66 11 10 254 223 270 236 9 8 -728 899 -742 899
-4 -1 -65 -60 -135 -133z"/>
<path d="M4300 4328 c-100 -90 -205 -185 -219 -198 -9 -9 -56 -52 -105 -95
-50 -44 -97 -87 -106 -95 -9 -8 -51 -46 -93 -84 -86 -76 -111 -99 -177 -160
-25 -22 -87 -79 -138 -125 l-92 -83 36 -42 c21 -22 107 -115 193 -205 86 -90
171 -180 190 -200 128 -137 376 -391 380 -391 6 0 73 64 557 535 324 316 324
315 324 321 0 5 -136 171 -150 184 -3 3 -32 39 -65 80 -33 41 -62 77 -65 80
-3 3 -100 119 -215 258 -114 138 -211 252 -214 252 -3 0 -22 -15 -41 -32z"/>
<path d="M5824 4003 c-68 -87 -258 -318 -279 -339 -5 -6 -38 -43 -73 -82 -82
-92 -105 -117 -158 -173 l-43 -47 61 -83 c137 -186 239 -332 337 -477 56 -84
106 -150 111 -147 34 21 380 508 489 687 l22 37 -67 128 c-37 70 -82 154 -101
186 -18 32 -33 60 -33 62 0 3 -189 327 -194 333 -2 1 -34 -37 -72 -85z"/>
<path d="M6635 3778 c-46 -139 -105 -274 -219 -494 -15 -30 -14 -34 39 -179
48 -131 79 -233 91 -302 5 -28 22 -73 27 -73 3 0 12 21 22 48 10 26 30 74 45
107 31 69 98 247 131 349 l23 68 -23 112 c-29 141 -97 393 -111 409 -4 5 -16
-15 -25 -45z"/>
<path d="M6870 3603 c-1 -59 -11 -143 -30 -259 -14 -87 -19 -168 -19 -283 0
-88 -3 -166 -7 -173 -5 -9 -4 -10 4 -3 10 9 23 91 38 225 3 30 8 62 10 70 8
23 18 450 10 450 -3 0 -6 -12 -6 -27z"/>
<path d="M1313 3447 c-178 -204 -233 -269 -338 -402 -44 -55 -88 -109 -97
-119 -10 -11 -18 -22 -18 -25 0 -22 569 -772 582 -768 10 3 292 269 602 568
112 108 109 95 35 177 -19 20 -70 80 -114 132 -44 52 -84 100 -90 106 -30 33
-165 198 -217 265 -14 18 -57 72 -93 119 -37 47 -69 90 -72 97 -13 33 -40 10
-180 -150z"/>
<path d="M2949 3097 c-206 -175 -399 -341 -429 -367 -30 -26 -66 -56 -79 -67
l-23 -19 83 -89 c46 -49 127 -133 179 -188 52 -55 113 -119 135 -142 290 -304
401 -415 411 -413 6 2 67 55 134 118 68 63 131 122 141 131 10 9 78 72 151
140 73 68 162 151 197 184 36 33 100 94 143 135 l78 75 -28 30 c-49 53 -267
292 -377 415 -32 36 -97 108 -145 160 -48 52 -112 122 -142 156 l-55 61 -374
-320z"/>
<path d="M5153 3232 c-132 -146 -557 -563 -730 -717 -24 -20 -43 -41 -43 -46
0 -7 182 -224 289 -344 118 -134 202 -227 247 -274 l50 -53 236 233 c220 219
508 530 508 549 0 5 -37 62 -82 127 -130 188 -341 488 -347 493 -4 3 -19 24
-35 48 -16 23 -31 42 -35 42 -3 0 -29 -26 -58 -58z"/>
<path d="M6314 3116 c-142 -224 -208 -320 -345 -502 l-107 -140 45 -80 c25
-43 81 -152 125 -241 l80 -162 24 28 c13 16 24 32 24 37 0 4 8 17 19 28 62 68
361 549 361 581 0 34 -141 462 -168 511 -8 14 -18 4 -58 -60z"/>
<path d="M6760 3023 c-24 -71 -72 -195 -107 -278 l-63 -150 7 -110 c3 -60 7
-138 7 -172 0 -35 3 -59 7 -55 3 4 30 68 59 142 69 178 71 183 65 140 -4 -30
-4 -32 5 -12 5 13 7 35 4 49 -5 18 -3 24 4 19 8 -4 10 -2 6 8 -3 8 4 50 17 93
12 43 23 92 25 108 6 48 15 345 10 345 -2 0 -23 -57 -46 -127z"/>
<path d="M55 3054 c-3 -25 -9 -56 -12 -67 -36 -159 -47 -383 -22 -507 21 -108
100 -310 198 -505 l31 -60 -4 95 c-3 93 -4 98 -60 210 -50 101 -152 344 -171
408 -12 40 2 23 20 -25 25 -70 100 -243 156 -362 27 -57 49 -108 49 -114 0
-20 11 1 16 29 11 71 29 136 61 221 l34 92 -61 128 c-34 70 -91 197 -127 283
-86 203 -93 220 -97 220 -2 0 -7 -21 -11 -46z"/>
<path d="M2309 2524 c-24 -21 -59 -53 -79 -70 -19 -17 -62 -55 -95 -84 -33
-29 -67 -60 -76 -69 -9 -9 -38 -35 -65 -58 -27 -23 -65 -56 -84 -74 -69 -63
-206 -187 -244 -221 l-39 -35 274 -274 c151 -151 309 -308 352 -349 76 -71 79
-73 103 -59 30 18 239 165 348 244 288 210 406 298 406 302 0 2 -96 100 -212
217 -117 116 -263 265 -324 331 -61 66 -136 147 -166 179 l-55 59 -44 -39z"/>
<path d="M6490 2403 c-67 -117 -203 -327 -300 -463 l-39 -55 25 -80 c14 -44
28 -104 31 -132 3 -29 9 -53 13 -53 7 0 167 239 221 330 18 30 56 98 86 150
l54 94 -5 164 c-3 90 -7 166 -9 168 -2 3 -37 -53 -77 -123z"/>
<path d="M6702 2443 c-11 -32 -35 -96 -53 -143 -57 -153 -78 -214 -75 -217 5
-5 81 187 121 306 20 57 34 106 31 108 -2 2 -13 -22 -24 -54z"/>
<path d="M5764 2357 c-27 -29 -94 -102 -149 -162 -55 -60 -194 -205 -308 -322
-115 -116 -209 -214 -210 -216 -2 -6 36 -50 122 -142 60 -66 178 -196 209
-232 l19 -23 124 124 c133 132 292 301 379 406 30 36 57 67 60 70 3 3 18 20
33 38 l27 34 -66 126 c-57 110 -183 342 -189 350 -1 1 -24 -22 -51 -51z"/>
<path d="M4194 2314 c-49 -42 -107 -93 -129 -113 -23 -20 -81 -70 -130 -111
-50 -41 -96 -81 -103 -88 -8 -7 -30 -25 -50 -40 -21 -15 -46 -35 -57 -45 -11
-10 -78 -64 -150 -120 -71 -56 -143 -113 -158 -127 l-28 -26 73 -64 c40 -36
75 -67 78 -70 10 -11 239 -210 373 -323 l138 -117 157 116 c238 176 671 529
680 555 2 5 -26 40 -61 77 -36 37 -75 78 -87 92 -11 13 -47 52 -78 85 -31 34
-97 105 -147 160 -49 54 -116 126 -147 159 -32 34 -58 64 -58 69 0 20 -34 0
-116 -69z"/>
<path d="M416 2191 c-36 -77 -76 -198 -76 -226 0 -28 381 -575 400 -575 5 0
15 8 22 19 7 10 41 50 75 87 34 38 70 81 82 95 l20 26 -120 154 c-106 136
-321 446 -335 484 -13 34 -31 18 -68 -64z"/>
<path d="M6527 2053 c-13 -27 -34 -64 -45 -83 -11 -19 -31 -56 -45 -81 -14
-26 -68 -111 -121 -190 -72 -109 -98 -156 -105 -194 -5 -27 -8 -51 -6 -53 10
-10 210 310 286 458 34 66 76 190 64 190 -2 0 -14 -21 -28 -47z"/>
<path d="M1530 1827 c-45 -40 -178 -160 -206 -184 -12 -10 -62 -56 -113 -102
l-92 -84 115 -111 c184 -179 255 -247 351 -331 49 -44 105 -94 124 -111 l34
-31 126 69 c142 79 401 237 401 245 0 3 -12 17 -27 31 -158 143 -290 269 -462
440 -113 111 -208 202 -211 202 -3 0 -21 -15 -40 -33z"/>
<path d="M6100 1823 c0 -5 -13 -21 -28 -38 -15 -16 -50 -57 -77 -90 -99 -120
-180 -208 -347 -378 -99 -101 -125 -133 -118 -146 4 -9 40 -50 79 -91 l70 -75
83 85 c119 123 282 304 376 417 l44 53 -12 52 c-22 104 -70 247 -70 211z"/>
<path d="M4988 1563 c-18 -15 -35 -30 -38 -33 -3 -3 -69 -59 -148 -124 -131
-108 -341 -265 -520 -391 -40 -27 -72 -53 -72 -57 0 -10 231 -168 349 -238
l102 -60 142 97 c200 137 566 419 575 443 3 8 -40 58 -202 235 -125 136 -143
155 -150 155 -2 0 -19 -12 -38 -27z"/>
<path d="M6153 1471 c-29 -47 -218 -258 -330 -368 -68 -67 -123 -126 -123
-131 0 -5 9 -17 21 -28 21 -19 21 -19 142 106 149 153 290 323 305 369 21 61
11 94 -15 52z"/>
<path d="M5274 978 c-99 -79 -253 -194 -342 -257 -89 -63 -162 -117 -162 -120
0 -8 131 -58 199 -76 l53 -14 92 61 c129 87 305 218 413 309 l92 77 -77 81
c-42 45 -80 81 -83 81 -3 0 -87 -64 -185 -142z"/>
<path d="M5570 866 c-92 -77 -297 -231 -410 -309 l-85 -59 45 5 c25 2 61 11
80 20 41 20 232 156 389 277 l110 85 -21 23 c-12 12 -24 22 -27 22 -3 -1 -40
-29 -81 -64z"/>
<path d="M3954 800 c-182 -110 -253 -149 -441 -245 -73 -37 -133 -69 -133 -72
0 -2 35 -20 78 -40 42 -19 106 -49 142 -65 73 -34 269 -108 286 -108 38 0 704
330 704 349 0 3 -26 20 -58 38 -31 17 -133 79 -225 137 -93 58 -174 106 -180
105 -7 0 -84 -45 -173 -99z"/>
<path d="M1790 699 c-47 -16 -116 -35 -155 -41 -38 -6 -73 -14 -77 -17 -9 -8
233 -169 362 -241 52 -29 111 -63 130 -74 23 -14 50 -21 76 -20 65 2 217 14
244 18 14 2 47 7 74 11 l48 7 -138 82 c-146 86 -270 166 -392 254 -41 28 -77
52 -81 51 -3 -1 -44 -14 -91 -30z"/>
<path d="M1350 647 c0 -4 52 -38 190 -126 85 -53 266 -151 313 -167 52 -19
178 -46 184 -40 3 2 -28 21 -69 41 -40 20 -77 40 -83 45 -5 4 -32 20 -60 36
-27 15 -106 64 -175 109 -120 80 -128 83 -195 88 -38 3 -78 8 -87 12 -10 4
-18 5 -18 2z"/>
<path d="M4625 533 c-114 -67 -360 -192 -480 -243 -66 -29 -124 -55 -128 -60
-4 -4 32 -13 80 -20 48 -6 97 -14 108 -16 79 -13 153 -5 230 25 145 58 158 64
347 160 l188 96 -83 26 c-45 14 -106 36 -135 48 -29 11 -56 21 -60 20 -4 0
-34 -17 -67 -36z"/>
<path d="M5109 486 c-2 -2 -24 -7 -49 -9 -27 -4 -82 -26 -140 -57 -163 -87
-360 -180 -432 -204 -10 -3 -18 -10 -18 -15 0 -15 137 25 254 75 124 54 370
175 401 198 16 12 17 15 4 16 -9 0 -18 -2 -20 -4z"/>
<path d="M3114 396 c-100 -35 -231 -75 -293 -91 -61 -16 -108 -32 -104 -36 26
-25 462 -179 513 -181 73 -2 604 144 584 161 -5 4 -45 20 -89 36 -74 26 -187
74 -343 146 -35 16 -69 28 -75 28 -7 -1 -93 -29 -193 -63z"/>
<path d="M2085 245 c71 -31 285 -105 335 -116 19 -4 64 -15 100 -23 78 -18 90
-19 70 -5 -12 8 -11 9 5 5 11 -3 32 -8 47 -12 16 -3 26 -9 24 -13 -2 -3 30 -8
73 -10 161 -9 433 -2 425 11 -3 4 -10 8 -17 8 -32 0 -366 115 -455 156 -21 10
-47 13 -70 10 -20 -3 -111 -8 -202 -12 -91 -4 -166 -8 -168 -9 -2 -2 40 -20
93 -40 53 -21 94 -39 93 -41 -2 -2 -46 13 -98 33 -83 31 -130 44 -285 77 -16
4 -3 -5 30 -19z m399 -104 c4 -5 -3 -7 -14 -4 -23 6 -26 13 -6 13 8 0 17 -4
20 -9z m71 -21 c13 -6 15 -9 5 -9 -8 0 -22 4 -30 9 -18 12 -2 12 25 0z"/>
<path d="M3802 169 c-84 -27 -217 -62 -295 -78 -78 -16 -133 -30 -122 -31 11
-1 27 -3 36 -5 20 -4 124 -17 169 -21 59 -5 174 -5 195 0 11 2 54 12 95 21
109 23 339 84 380 100 l35 14 -41 0 c-34 1 -181 24 -279 44 -11 2 -89 -18
-173 -44z"/>
<path d="M2618 83 c7 -3 16 -2 19 1 4 3 -2 6 -13 5 -11 0 -14 -3 -6 -6z"/>
<path d="M3163 41 c-29 -4 -91 -6 -138 -6 -89 1 -88 -7 0 -19 68 -10 529 -14
585 -6 l45 7 -45 2 c-52 3 -110 9 -160 17 -54 8 -229 11 -287 5z"/>
</g>
</svg>
