<svg id="Layer_1" data-name="Layer 1" xmlns="http://www.w3.org/2000/svg" width="65" height="65" viewBox="0 0 65 65"><defs><style>.cls-1,.cls-2{fill:#9564ff;}.cls-1{fill-opacity:0.15;}</style></defs><title>icons</title><circle class="cls-1" cx="32.5" cy="32.5" r="32.5"/><path class="cls-2" d="M33.8,17.7c-3.5-2.1-8-3.4-10.3-.5a4.2,4.2,0,0,0-1,2.6,4.3,4.3,0,0,0,.8,2.7,3,3,0,0,0-.2,1,1.9,1.9,0,0,0,.5,1.3,1.8,1.8,0,0,0,1.6.5h2.6a9,9,0,0,0,.4,4.3,11.7,11.7,0,0,0,3.5,5V43l-.5-.2h-.5l-1.1,3.7-4.5,2.4,1.2.4a7.6,7.6,0,0,0,2.1.3,14.3,14.3,0,0,0,7.3-2.4,14.7,14.7,0,0,0,4.7-4.9,16.8,16.8,0,0,0,2.2-6.4,18.5,18.5,0,0,0-8.8-18.1Zm7.6,18a14.2,14.2,0,0,1-2,6A13.5,13.5,0,0,1,35,46.2a12.5,12.5,0,0,1-7,2.2l2.4-1.3,1-3.1h0a4.6,4.6,0,0,1,1.7,1.4.5.5,0,0,0,.7,0,.6.6,0,0,0,.1-.7,5.2,5.2,0,0,0-1.1-1V34.1l-.2-.2a11.1,11.1,0,0,1-3.4-4.6,9.3,9.3,0,0,1-.3-4.4v-.6H25.1a1.6,1.6,0,0,1-.9-.3v-.2H25a3.5,3.5,0,0,0,2.4-.6h0a.3.3,0,0,0,0-.4H27a3,3,0,0,1-2.1.5H24a1.4,1.4,0,0,1,.2-.6l.2-.3-.2-.3a3.3,3.3,0,0,1-.7-2.1,3.2,3.2,0,0,1,.8-2.1c1.9-2.4,5.8-1.2,8.9.7a17.2,17.2,0,0,1,8.2,17.1Z"/><path class="cls-2" d="M33.7,22.4a3.7,3.7,0,0,0-2.1.3c-.1.1-.2.2-.2.3a.6.6,0,0,0,.1.4.5.5,0,0,0,.7.1,2.1,2.1,0,0,1,2.4.6h0a2,2,0,0,1,.4,1.5l-2-1.1h-.4a.3.3,0,0,0-.3.3.3.3,0,0,0,0,.4l.3.3,3.1,1.8.2-.5a3.4,3.4,0,0,0-.3-3.1,2.8,2.8,0,0,0-1.9-1.2Z"/><path class="cls-2" d="M28.3,21.1c-.1.1-.2.4-.1.5a.5.5,0,0,0,.5.3c.2,0,.4-.1.4-.3a.4.4,0,0,0-.1-.5h-.7Z"/></svg>