<svg id="Layer_1" data-name="Layer 1" xmlns="http://www.w3.org/2000/svg" width="65" height="65" viewBox="0 0 65 65"><defs><style>.cls-1,.cls-2{fill:#319cf9;}.cls-1{fill-opacity:0.15;}</style></defs><title>icons</title><circle class="cls-1" cx="32.5" cy="32.5" r="32.5"/><path class="cls-2" d="M23.2,42.5a3.9,3.9,0,0,0,2.8-.9,4.4,4.4,0,0,0,2.8.9,3.9,3.9,0,0,0,2.8-.9,4.4,4.4,0,0,0,2.8.9h.5a4.1,4.1,0,0,0,2.3-.9,4.4,4.4,0,0,0,2.8.9c2.6,0,3.4-1.5,3.4-1.6a.6.6,0,1,0-1.1-.5,1.7,1.7,0,0,1-.5.5,73.3,73.3,0,0,1,2.8-17.4c.9-2.7.9-4.6.2-5.8h0a2.1,2.1,0,0,0-1.5-1c-.3,0-6.5.9-10.6,10.4a16.2,16.2,0,0,0-7.6-1.7,1.3,1.3,0,0,0-1.2.8,1.6,1.6,0,0,0,0,1.5l.9,1.5,2.8,4.5q.6,1,2.7,1.2c-.4,2.1-.8,4.2-1,6.4h-.4c-1.7,0-2.2-.8-2.2-.9a.7.7,0,0,0-.6-.4.5.5,0,0,0-.6.4,2.4,2.4,0,0,1-2.2.9c-1.7,0-2.2-.8-2.2-.9a.7.7,0,0,0-.8-.3.6.6,0,0,0-.3.8C19.9,41.1,20.7,42.5,23.2,42.5Zm18.5-24a4.3,4.3,0,0,1-.9,3.3l-1.6,1.7a15.6,15.6,0,0,0-3.9,5.3l-1.7-1.1C36.4,21.8,39.7,19.5,41.7,18.5Zm-5.9,12h.4v-.2a13.2,13.2,0,0,1,3.9-5.7,12.9,12.9,0,0,0,1.6-1.8A6,6,0,0,0,42.9,18h.3c.1,0,.3.1.4.4s.6,1.7-.3,4.7a74.3,74.3,0,0,0-2.9,18.2H40c-1.7,0-2.2-.8-2.2-.8a.8.8,0,0,0-.6-.4.7.7,0,0,0-.6.4,1.8,1.8,0,0,1-1.1.7,45.9,45.9,0,0,1,.6-7.3h-.6l-2.3.2c-1.6.2-4.1.6-4.6-.3l-2.9-4.8L24.9,27v-.2a.1.1,0,0,1,.1-.1,16.6,16.6,0,0,1,10.3,3.7h.5Zm-4.3,4.3,1.9-.2,1.3-.2a51.9,51.9,0,0,0-.5,6.8c-1.6-.1-2-.8-2-.9a.7.7,0,0,0-.5-.4.5.5,0,0,0-.6.4,1.7,1.7,0,0,1-.5.5Q30.9,37.8,31.5,34.8Z"/><path class="cls-2" d="M48.3,45.6q0-.1-.3-.3c-.3-.1-.6-.1-.7.2a2.5,2.5,0,0,1-1.2,1.1,2.5,2.5,0,0,1-1.7,0,2.8,2.8,0,0,1-1.3-1.1.5.5,0,0,0-.5-.3h-.3l-.2.3a2.5,2.5,0,0,1-1.2,1.1,2.5,2.5,0,0,1-1.7,0A2.2,2.2,0,0,1,38,45.5a.5.5,0,0,0-.5-.3h-.3l-.2.3a2.5,2.5,0,0,1-1.2,1.1,2.5,2.5,0,0,1-1.7,0,2.2,2.2,0,0,1-1.2-1.1.5.5,0,0,0-.5-.3h-.3l-.2.3h0a2.5,2.5,0,0,1-1.2,1.1,2.5,2.5,0,0,1-1.7,0,2.2,2.2,0,0,1-1.2-1.1.5.5,0,0,0-.5-.3H27l-.2.3h0a2.5,2.5,0,0,1-1.2,1.1,2.5,2.5,0,0,1-1.7,0,2.2,2.2,0,0,1-1.2-1.1.5.5,0,0,0-.5-.3H22l-.2.3h0a2.6,2.6,0,0,1-2.1,1.4,1.7,1.7,0,0,1-1.2-.4,2.2,2.2,0,0,1-.9-1c-.1-.3-.5-.3-.7-.2s-.3.5-.2.7A2.7,2.7,0,0,0,18,47.3a3.5,3.5,0,0,0,1.8.5,3.4,3.4,0,0,0,2.6-1.2A3.2,3.2,0,0,0,25,47.8a3.4,3.4,0,0,0,2.6-1.2,3.2,3.2,0,0,0,2.6,1.2,3.4,3.4,0,0,0,2.6-1.2,3.2,3.2,0,0,0,2.6,1.2A3.4,3.4,0,0,0,38,46.6a3.2,3.2,0,0,0,2.6,1.2,3.4,3.4,0,0,0,2.6-1.2,3.2,3.2,0,0,0,2.6,1.2A3.6,3.6,0,0,0,48.9,46C48.4,45.9,48.4,45.8,48.3,45.6Z"/></svg>