<svg id="Layer_1" data-name="Layer 1" xmlns="http://www.w3.org/2000/svg" width="65" height="65" viewBox="0 0 65 65"><defs><style>.cls-1,.cls-2{fill:#1ee57b;}.cls-1{fill-opacity:0.15;}</style></defs><title>icons</title><circle class="cls-1" cx="32.5" cy="32.5" r="32.5"/><path class="cls-2" d="M53.5,26.5c-3.9-1.1-6.3-.4-7.5.2-.7-2.7-4.9-4.5-5.1-4.6a.6.6,0,0,0-.7.2,4.5,4.5,0,0,0,1.1,5.3L42.8,29h-.1c-8,3.2-13.8.1-18.5-2.5h-.1l-1.4-.8c-6.6-3.5-10.5-2.3-11.1-2.1h-.4c0,.1-.1.1-.1.2a12.2,12.2,0,0,0,5.7,11.3c-.3,1.1-.8,3.9,1.5,5.1a.1.1,0,0,1,.1.1h.4c.2-.1.3-.2.3-.4a8.5,8.5,0,0,1,1.1-3l2.8.8h.2a7.2,7.2,0,0,0,4.3,4.7H28a.5.5,0,0,0,.3-.4s.1-1.7,0-3.6a18.5,18.5,0,0,0,10.8-2.6h0l.3-.2a18.5,18.5,0,0,0,3.7-3.1h.1l.2-.2.6-.7h.1l1.4-1.3a7.3,7.3,0,0,1,3.1,0,4.6,4.6,0,0,0,3.7-.7A4.4,4.4,0,0,0,54,26.8h0C53.9,26.9,53.7,26.6,53.5,26.5ZM19.2,36.9a6.5,6.5,0,0,0-.9,2.4,3.9,3.9,0,0,1-.4-3.1Zm-7-11.8c2.3.6,10.5,2.9,10.6,7.6a14.8,14.8,0,0,0,0,4.2C12.6,34.4,12.1,27.2,12.2,25.1Zm18.5,11a21,21,0,0,0,4.8.6,19.5,19.5,0,0,1-7.4,1.1c-.1-1-.2-1.8-.3-2.5Zm18-6.5a10.4,10.4,0,0,0-3.7,0h-.1a8,8,0,0,0-1.7,1.5l-.7.7-.3.3a18.5,18.5,0,0,1-3.7,3.1c-5.4,1.3-11.3-1.4-11.4-1.4h-.7c.7,1.3.7,5.3.7,7-4.4-2.5-3.3-8.4-3.2-8.6h0c-.1-4.5-5.7-7-9.3-8.1a18.4,18.4,0,0,1,7.5,2.3l1.4.7h.1c4.9,2.7,10.9,6,19.4,2.5a1.1,1.1,0,0,0,.7-.8,1.4,1.4,0,0,0-.2-1.1A11.9,11.9,0,0,0,41.9,27a3.1,3.1,0,0,1-1-3.4c1.1.6,4.1,2.3,4,4.3a.5.5,0,0,0,.3.5.5.5,0,0,0,.6-.1s2-1.8,6.7-.6a3.7,3.7,0,0,1-1.1,1.7A5.5,5.5,0,0,1,48.7,29.6Zm3-.3Z"/></svg>