<svg id="Layer_1" data-name="Layer 1" xmlns="http://www.w3.org/2000/svg" width="65" height="65" viewBox="0 0 65 65"><defs><style>.cls-1,.cls-2{fill:#f2ff61;}.cls-1{fill-opacity:0.15;}</style></defs><title>icons</title><circle class="cls-1" cx="32.5" cy="32.5" r="32.5"/><path class="cls-2" d="M25.1,16.8a.5.5,0,0,0-.6.2c-.1.2-.2.5,0,.7a28.3,28.3,0,0,1,4.6,13.8l-8.6-4.3a.6.6,0,0,0-.8.8A8.5,8.5,0,0,1,21,32.4a8.3,8.3,0,0,1-1.3,4.4.6.6,0,0,0,.8.8l8.6-4.3a28,28,0,0,1-4.6,13.8.9.9,0,0,0,0,.7c.1.2.3.2.5.2h.2c13.5-3.8,20.3-9.1,20.3-15.7S38.6,20.7,25.1,16.8ZM28,43a26.4,26.4,0,0,0,2.2-10.5,29.1,29.1,0,0,0-4-14.1,51,51,0,0,1,7.3,2.7,24.1,24.1,0,0,1-.6,13.1A35.3,35.3,0,0,1,28,43Zm6-8.4a23.3,23.3,0,0,0,.7-2.5,16.6,16.6,0,0,1,3.2,3.3,11.5,11.5,0,0,1,1.9,4.8c-2.9,2.3-7.3,4.4-13.1,6.2A36.1,36.1,0,0,0,34,34.6Zm.9-12.9c6.2,3,9.3,6.7,9.3,10.8a9.1,9.1,0,0,1-3.3,6.8,13.7,13.7,0,0,0-2-4.6,16.4,16.4,0,0,0-3.9-4A24.8,24.8,0,0,0,34.9,21.7ZM22.2,32.5a8.3,8.3,0,0,0-.7-3.4l6.8,3.4-6.8,3.4A8.3,8.3,0,0,0,22.2,32.5Z"/><path class="cls-2" d="M39.8,31.2A1.8,1.8,0,1,0,38,29.4,1.8,1.8,0,0,0,39.8,31.2Z"/></svg>