<svg id="Layer_1" data-name="Layer 1" xmlns="http://www.w3.org/2000/svg" width="65" height="65" viewBox="0 0 65 65"><defs><style>.cls-1,.cls-2{fill:#fff;}.cls-1{fill-opacity:0.15;}</style></defs><title>icons</title><circle class="cls-1" cx="32.5" cy="32.5" r="32.5"/><path class="cls-2" d="M53.2,36.7h0a.4.4,0,0,0-.5-.2c-3.2.3-7,.1-7.4-.5s-4.5-7.9-12.5-11.4c0-1.7,1.5-3.8,1.5-3.9a.6.6,0,0,0,0-.6.5.5,0,0,0-.5-.3h0A9.5,9.5,0,0,0,26.6,23H26c-10.2-.7-13.3,4.4-14.2,6.6a1.3,1.3,0,0,0,.1,1.2c0,.1.1.1.1.2l.4.4c.7.4,2.7,1.2,7.6,1.9A7.7,7.7,0,0,0,21.8,37c.1.1.4.2.5.1a.8.8,0,0,0,.4-.4,11.3,11.3,0,0,1,1-3h1.9a11.1,11.1,0,0,0,2.8,4,.5.5,0,0,0,.7-.1.8.8,0,0,0,.2-.4c0-1.1,0-2.1.1-3.2,4.1.5,9.6,1.5,13.3,3.8l.2,7.1a.5.5,0,0,0,.2.4h.5c.2-.1,3.9-1.5,4.1-4.3,1.2-.2,4.3-1,5.6-3.7C53.3,37,53.3,36.8,53.2,36.7ZM28,23.1a8.9,8.9,0,0,1,4.8-2.2,7.6,7.6,0,0,0-1.1,3.2A15.6,15.6,0,0,0,28,23.1ZM30,31c5.2.9,6.4,2.2,6.6,2.7s.1.2.1.4a48.7,48.7,0,0,0-7.2-1.3A10.6,10.6,0,0,1,30,31Zm-.2-1.1h0c-.2,0-.3,0-.3.1h-.1c-.9,1.1-1.1,3.8-1.1,5.7a21.6,21.6,0,0,1-2.9-6.2h-.9c-3.1.9-9,2.1-11.8.9v-.2c.7-1.8,3.2-6,11.4-6h1.7c11.6.7,18.2,12,18.4,12.4h0c.8,1.3,4.7,1.3,7.3,1.1a8.2,8.2,0,0,1-4.6,2.3h0a.6.6,0,0,0-.5.6c.1,1.7-1.6,2.9-2.6,3.4l-.2-6.5a.5.5,0,0,0-.3-.5,21.7,21.7,0,0,0-5.7-2.5,1.4,1.4,0,0,0-.2-1.1c-.4-1.6-3.1-2.7-7.6-3.4Zm-5.4.5.7,2.1-2.3-.2a50.2,50.2,0,0,1-5-.7A36.1,36.1,0,0,0,24.4,30.4Zm-1.9,3c-.2.5-.4,1.2-.6,1.8a5.3,5.3,0,0,1-.7-2ZM53,36.8ZM43.5,45Z"/></svg>