<svg id="Layer_1" data-name="Layer 1" xmlns="http://www.w3.org/2000/svg" width="65" height="65" viewBox="0 0 65 65"><defs><style>.cls-1,.cls-2{fill:#e85eee;}.cls-1{fill-opacity:0.15;}</style></defs><title>icons</title><circle class="cls-1" cx="32.5" cy="32.5" r="32.5"/><path class="cls-2" d="M45,42.5c-.4-4.6-1.6-7.5-3.9-9.2a16.9,16.9,0,0,0-5.8-2.4l-2-.6c-3.9-1.2-4.7-2.8-5.4-4.6a3.7,3.7,0,0,1-.3-1.5c0-.4.2-.5.3-.7a3,3,0,0,1,1.4-.6h.1a3,3,0,0,0,1.9-1.6,2.1,2.1,0,0,0,.1-2.3.5.5,0,0,0-.5-.3,4.7,4.7,0,0,1-2.2-.7h-.1a12.6,12.6,0,0,0-2.8-1.1l-1.4-.2H23a6.2,6.2,0,0,0-2.6,1.2,7.2,7.2,0,0,0-2.6,5.9,26.8,26.8,0,0,0,1.7,9.7,15.6,15.6,0,0,0,1.8,3.4,14.2,14.2,0,0,1-2.5,1.3,1.4,1.4,0,0,0-.9,1.5,1.6,1.6,0,0,0,1.3,1.4,8.3,8.3,0,0,0,5.6-1l.8.4A5,5,0,0,0,30,44a8.6,8.6,0,0,0,3.6-.2A1.8,1.8,0,0,0,35,42.1a1.3,1.3,0,0,0-.5-1.1h2.4a5.4,5.4,0,0,1,2.6.4,1.6,1.6,0,0,1,.7,1,5.1,5.1,0,0,0-1.7,1.9,4.6,4.6,0,0,0-.3,3.3c0,.2.2.3.3.4H39l1-.3,1.1-.3a3.7,3.7,0,0,0,1.6-.9,3.2,3.2,0,0,0,1.6.9l1.1.3,1,.3a.5.5,0,0,0,.5,0c.2-.1.3-.2.3-.4A4.5,4.5,0,0,0,45,42.5ZM19.4,40.2c-.2-.1-.4-.2-.4-.4s0-.2.2-.3A15.1,15.1,0,0,0,22,38a7.5,7.5,0,0,0,1.6,1.5A7.6,7.6,0,0,1,19.4,40.2Zm21.7,3.2a.6.6,0,0,0,.3-.7,3.4,3.4,0,0,0-1.3-2.1,6.5,6.5,0,0,0-3.2-.6H32a2.7,2.7,0,0,1-.7-.8,6.5,6.5,0,0,1-.6-2.4h0a.5.5,0,0,0-.3-.5c-.2-.1-.5-.1-.6.1s-.2.3-.2.5v.2a7.2,7.2,0,0,0,.7,2.7,5,5,0,0,0,3.2,2.3.3.3,0,0,1,.3.3.5.5,0,0,1-.5.5,6.5,6.5,0,0,1-3.1.1,4.9,4.9,0,0,1-2.6-1.2c-1.2-1.3-1.5-3.3-.8-5.5a.4.4,0,0,0-.1-.5c-.1-.2-.3-.2-.5-.2h0a.7.7,0,0,0-.6.4,7.2,7.2,0,0,0-.4,3.2,11,11,0,0,1-4.8-6,26.6,26.6,0,0,1-1.6-9.3,6.3,6.3,0,0,1,2.1-5,5.4,5.4,0,0,1,3.2-1.1h1.2a8.2,8.2,0,0,1,2.5,1h.1a5.8,5.8,0,0,0,2.2.8.9.9,0,0,1-.2.8,2.1,2.1,0,0,1-1.1,1h-.2a3.4,3.4,0,0,0-1.8.9,2.2,2.2,0,0,0-.6,1.4,5.1,5.1,0,0,0,.4,2c.8,2,2.1,4,6.2,5.3l2,.6A16.9,16.9,0,0,1,40.2,34c2,1.6,3.1,4.1,3.4,8.6a.5.5,0,0,0,.3.5,3.5,3.5,0,0,1,1.9,3.4l-.6-.2-.9-.3c-.8-.3-1.3-.6-1.4-1a.5.5,0,0,0-.6-.4h0a.7.7,0,0,0-.6.4c-.1.4-.6.8-1.4,1.1l-.9.2h-.5a2.4,2.4,0,0,1,.2-1.7C39.7,44.4,40.3,43.8,41.1,43.4Z"/><path class="cls-2" d="M26.7,19.8a1,1,0,0,0-.9-1,.9.9,0,0,0-.9,1,.9.9,0,1,0,1.8,0Z"/></svg>