<svg id="Layer_1" data-name="Layer 1" xmlns="http://www.w3.org/2000/svg" width="65" height="65" viewBox="0 0 65 65"><defs><style>.cls-1,.cls-2{fill:#a0fe6a;}.cls-1{fill-opacity:0.15;}</style></defs><title>icons</title><circle class="cls-1" cx="32.5" cy="32.5" r="32.5"/><path class="cls-2" d="M52.6,43.3a.6.6,0,0,0-.9.3,2.9,2.9,0,0,1-1.6,1.5,2.8,2.8,0,0,1-2.2,0,3.2,3.2,0,0,1-1.6-1.4.8.8,0,0,0-.6-.4h-.4l-.2.3A2.5,2.5,0,0,1,43.5,45a3,3,0,0,1-2.1,0,3.2,3.2,0,0,1-1.6-1.4.8.8,0,0,0-.6-.4h-.4l-.2.3A2.5,2.5,0,0,1,37,44.9a2.6,2.6,0,0,1-2.1,0,3.2,3.2,0,0,1-1.6-1.4.8.8,0,0,0-.6-.4h-.4l-.2.3h0a2.5,2.5,0,0,1-1.6,1.4,2.6,2.6,0,0,1-2.1,0,3.2,3.2,0,0,1-1.6-1.4.8.8,0,0,0-.6-.4h-.4l-.2.3h0A2.5,2.5,0,0,1,24,44.7a2.6,2.6,0,0,1-2.1,0,3.2,3.2,0,0,1-1.6-1.4.8.8,0,0,0-.6-.4h-.4l-.2.3h0A2.8,2.8,0,0,1,18,44.5a2.8,2.8,0,0,1-3.2,0,2.5,2.5,0,0,1-1.1-1.2.8.8,0,0,0-.9-.3.8.8,0,0,0-.3.9,4.4,4.4,0,0,0,1.6,1.7,4.6,4.6,0,0,0,2.3.6,4.5,4.5,0,0,0,3.3-1.5A4.1,4.1,0,0,0,23,46.2a4.5,4.5,0,0,0,3.3-1.5,4.1,4.1,0,0,0,3.3,1.5,4.5,4.5,0,0,0,3.3-1.5,4.1,4.1,0,0,0,3.3,1.5,4.5,4.5,0,0,0,3.3-1.5,4.1,4.1,0,0,0,3.3,1.5,4.5,4.5,0,0,0,3.3-1.5,4.1,4.1,0,0,0,3.3,1.5,3.9,3.9,0,0,0,2.3-.7,4.4,4.4,0,0,0,1.6-1.7.9.9,0,0,0,.1-.5c-.5.3-.6.1-.8,0Z"/><path class="cls-2" d="M45.7,32.8A4.1,4.1,0,0,0,49,34.3a3.9,3.9,0,0,0,2.3-.7,4.4,4.4,0,0,0,1.6-1.7.7.7,0,0,0-1.2-.6,2.9,2.9,0,0,1-1.6,1.5,2.8,2.8,0,0,1-2.2,0,3.2,3.2,0,0,1-1.6-1.4.7.7,0,0,0-.6-.4h-.4l-.2.3A3.5,3.5,0,0,1,42.7,33,22,22,0,0,0,22.2,18a1.3,1.3,0,0,0-.9.4,1.8,1.8,0,0,0-.4,1v.2a36,36,0,0,1,1.2,8.1c0,.7.9,1.1,1.8,1.6l.6.3H24c-1,.4-1.8.6-1.8,1.4a12.7,12.7,0,0,1-.1,2h0A3.1,3.1,0,0,1,20,31.4a.8.8,0,0,0-.6-.4H19l-.2.3h0a3.2,3.2,0,0,1-1.1,1.2,4.3,4.3,0,0,1-1.6.5,3,3,0,0,1-1.6-.5,2.5,2.5,0,0,1-1.1-1.2.8.8,0,0,0-.9-.3.8.8,0,0,0-.3.9,4.4,4.4,0,0,0,1.6,1.7,4.6,4.6,0,0,0,2.3.6,4.5,4.5,0,0,0,3.3-1.5,4.6,4.6,0,0,0,2.7,1.5,34.7,34.7,0,0,1-.6,4.5,3.2,3.2,0,0,1-1.4-1.4.8.8,0,0,0-.6-.4h-.4l-.2.3h0a2.5,2.5,0,0,1-1.1,1.2,2.8,2.8,0,0,1-3.2,0,2.5,2.5,0,0,1-1.1-1.2.8.8,0,0,0-.9-.3.8.8,0,0,0-.3.9,4.4,4.4,0,0,0,1.6,1.7,4.6,4.6,0,0,0,2.3.6,4.5,4.5,0,0,0,3.3-1.5,4.1,4.1,0,0,0,3.3,1.5,4.5,4.5,0,0,0,3.3-1.5,4.1,4.1,0,0,0,3.3,1.5,4.5,4.5,0,0,0,3.3-1.5A4.1,4.1,0,0,0,36,40.1a4.5,4.5,0,0,0,3.3-1.5,4.1,4.1,0,0,0,3.3,1.5,4.5,4.5,0,0,0,3.3-1.5,4.1,4.1,0,0,0,3.3,1.5,3.9,3.9,0,0,0,2.3-.7,4.4,4.4,0,0,0,1.6-1.7.7.7,0,0,0-1.2-.6,2.9,2.9,0,0,1-1.6,1.5,2.8,2.8,0,0,1-2.2,0,3.2,3.2,0,0,1-1.6-1.4.8.8,0,0,0-.6-.4h-.4l-.2.3a3.2,3.2,0,0,1-1.1,1.2,17.2,17.2,0,0,0-.9-4.4,2.6,2.6,0,0,0,2.4-1.1Zm-3.3,6.4a4.7,4.7,0,0,1-1.6-.4,2.5,2.5,0,0,1-1.1-1.2.8.8,0,0,0-.6-.4h-.4l-.2.3h0a2.5,2.5,0,0,1-1.6,1.4,2.6,2.6,0,0,1-2.1,0,3.2,3.2,0,0,1-1.6-1.4.8.8,0,0,0-.6-.4h-.4l-.2.3h0a2.5,2.5,0,0,1-1.6,1.4,2.6,2.6,0,0,1-2.1,0,3.2,3.2,0,0,1-1.6-1.4.8.8,0,0,0-.6-.4h-.4l-.2.3a2.5,2.5,0,0,1-1.1,1.2,3,3,0,0,1-1.5.5,51.6,51.6,0,0,0,.9-7.9l.9-.3c1.1-.4,1.9-.6,1.9-1.4s-.8-1.2-1.8-1.6l-1.1-.6a36,36,0,0,0-1.2-8c10.6,0,19.4,8.6,20.4,19.8Z"/><path class="cls-2" d="M28,21.5a11.5,11.5,0,0,0-3.6-.7.7.7,0,0,0,0,1.4,11.3,11.3,0,0,1,3.2.6,9.2,9.2,0,0,1,3.8,2.6.7.7,0,0,0,.9,0,.6.6,0,0,0,.1-.9,11.5,11.5,0,0,0-4.4-3Z"/></svg>