<svg id="Layer_1" data-name="Layer 1" xmlns="http://www.w3.org/2000/svg" width="65" height="65" viewBox="0 0 65 65"><defs><style>.cls-1,.cls-2{fill:#809bd8;}.cls-1{fill-opacity:0.15;}</style></defs><title>icons</title><circle class="cls-1" cx="32.5" cy="32.5" r="32.5"/><path class="cls-2" d="M53.3,21.1a.5.5,0,0,0-.3-.5.6.6,0,0,0-.6,0,23.9,23.9,0,0,1-5.9,2.7c-2.7.7-7.7-1.3-7.9-1.4a.5.5,0,0,0-.6.1c-.2.1-.2.3-.2.5.5,3.6,5.5,5.3,7.3,5.8a2.7,2.7,0,0,1-1.2,2.1c-3,2-10.8-1-14.2-2.3a5,5,0,0,0-1.5-.5,35.6,35.6,0,0,0-6.8-1H18.8c-2.6,0-4.4.3-5.6,1a2.7,2.7,0,0,0-1.3,1.7c-.6,3-.9,9.7.4,11.7a1.7,1.7,0,0,0,1,.7h3.4a107.5,107.5,0,0,0,10.8-.5,6.7,6.7,0,0,0,5.2,3.4l.5-.2a.7.7,0,0,0,.1-.5s-.4-1.5-.7-3.2c6.4-.9,10.6-2.2,12.7-4a9.1,9.1,0,0,0,3.2-8.6A8.5,8.5,0,0,0,53.3,21.1Zm-6.4,6.4h.6v.3a7.9,7.9,0,0,1-2.7,7.9c-1.9,1.6-5.9,2.8-12.1,3.7,0-.3-.1-.6-.1-.9a.5.5,0,0,0-.2-.4c-.1-.1-.3-.2-.4-.1a.5.5,0,0,0-.4.2c-.1.1-.2.3-.1.4a41.2,41.2,0,0,0,.7,4.6c-3.6-.9-4.2-4.6-4.3-4.7a.6.6,0,0,0-.6-.5h-.1a.7.7,0,0,0-.5.7,5,5,0,0,0,.4,1.3,79.9,79.9,0,0,1-13.4.3l-.2-.2a2.3,2.3,0,0,1-.4-1,43.2,43.2,0,0,0,9.2-1,.6.6,0,1,0-.3-1.1,63.6,63.6,0,0,1-9.1,1,30,30,0,0,1,.4-8.6,1.3,1.3,0,0,1,.7-.9c.9-.6,2.7-.9,5-.9h1.3a38.8,38.8,0,0,1,7.7,1l1.3.5h.1c3.8,1.5,11.7,4.5,15.2,2.2a3.9,3.9,0,0,0,1.7-3.5.7.7,0,0,0-.4-.6c-.1,0-5.1-1.2-6.6-3.9,1.8.6,5.2,1.6,7.4,1a22.3,22.3,0,0,0,5.1-2.2,6.9,6.9,0,0,1-4.2,5Z"/></svg>