<svg id="Layer_1" data-name="Layer 1" xmlns="http://www.w3.org/2000/svg" width="65" height="65" viewBox="0 0 65 65"><defs><style>.cls-1,.cls-2{fill:#f24040;}.cls-1{fill-opacity:0.15;}</style></defs><title>icons</title><circle class="cls-1" cx="32.5" cy="32.5" r="32.5"/><path class="cls-2" d="M20.6,45.9h.2a14.3,14.3,0,0,0,2.8.2A16,16,0,0,0,31,44.4a47,47,0,0,0,7-4.6l2.6-1.2h.1c2.3.3,8,.8,10.4-.1s1-.9,1-1.1-1.7-1.4-5.6-2.2h0l-.9-.2-.9-.2h-.3l.2-.3a8.1,8.1,0,0,1,1.9-1.7l.2-.3,1.6-3.3h.2A13.5,13.5,0,0,1,51,31.6l.5.2h.3c.3-.2.4-.4.3-.7L50,24.9l-.3-.7V24l-1-4.8a.6.6,0,0,0-1.2,0l-1,4.8h-.1l-.7.6h-.2l-1.5-3a.9.9,0,0,0-.6-.3.7.7,0,0,0-.5.4l-1.6,4.2H39.4v-.3c-.4-3.6-1.2-5.8-2.2-6.1a1.3,1.3,0,0,0-1.3.4c-1.1,1.1-1.8,3.6-1.9,6.9v.2h-.2l-7.6,2a22.5,22.5,0,0,0-10.4,6c-2.4,2.5-3.3,4.6-2.7,6.4a2.1,2.1,0,0,0,1.6,1.4h.1a3.9,3.9,0,0,0,1.9,2,6.7,6.7,0,0,0,2.6.5h1.1l.2.3Zm3.6-1,1.5-.7,1.1-.5c2.5-1.1,3.1-1.5,2.9-2.2s-.6-.6-3.9-.1c-7.4,1.3-11.1,1.3-11.7-.1s.3-3.1,2.4-5.2a22.7,22.7,0,0,1,9.9-5.7,105.5,105.5,0,0,1,14.1-3.2c4.3-.3,6.3-2.2,6.7-2.6a.4.4,0,0,0,.1-.3l.4-2.1.4,2.1c0,.1.1.1.1.2a2.9,2.9,0,0,1,.4,2.1,2.1,2.1,0,0,1-.8,1.2h-.1a1.1,1.1,0,0,0-.7.6l-1.6,3.2c-1.6,1.2-2.5,2.3-2.4,3.1a1.2,1.2,0,0,0,.8.9l1.7.4h.4l.9.2,2.5.6,1,.3-1,.2a36.5,36.5,0,0,1-8.8-.2l-.8.8.3-.8h-.2l.3-.3c.4-1,1.1-3.9,0-5.7a3,3,0,0,0-2.5-1.5.8.8,0,0,0-.7.5c0,.2,0,.3.1.4l.4.2a2.2,2.2,0,0,1,1.7,1c.8,1.4.2,3.9-.1,4.7s-4.3,4.3-9,6.8a13.1,13.1,0,0,1-4.6,1.4Zm-4.9-.2a4.2,4.2,0,0,1-2-.4h-.4l-1.1-.5H17a39.5,39.5,0,0,0,7.4-.7l2.4-.4-2.3.9A14.7,14.7,0,0,1,19.3,44.7ZM35.2,27.2v-.3c0-1,.3-4.2,1.4-5.6l.2-.3.2.3a18.9,18.9,0,0,1,1.2,5v.2H38l-1.9.4Zm7.3-1.3.9-2.3.9,1.7h-.2l-1,.3Z"/></svg>